<mxfile host="app.diagrams.net" modified="2022-06-01T02:38:17.850Z" agent="5.0 (Windows NT 10.0; Win64; x64) AppleWebKit/537.36 (KHTML, like Gecko) Chrome/101.0.4951.64 Safari/537.36 Edg/101.0.1210.53" etag="n3zPQzECac9u3ooHsFL1" version="18.2.0" type="github">
  <diagram id="HcpQ-mZ4xSk38Q2RM5bX" name="Page-1">
    <mxGraphModel dx="1996" dy="1116" grid="1" gridSize="10" guides="1" tooltips="1" connect="1" arrows="1" fold="1" page="1" pageScale="1" pageWidth="827" pageHeight="1169" math="0" shadow="0">
      <root>
        <mxCell id="0" />
        <mxCell id="1" parent="0" />
        <mxCell id="fnQYyfFnShneouija3rD-5" value="" style="shape=image;html=1;verticalAlign=top;verticalLabelPosition=bottom;labelBackgroundColor=#ffffff;imageAspect=0;aspect=fixed;image=https://cdn2.iconfinder.com/data/icons/circle-icons-1/64/countdown-128.png" vertex="1" parent="1">
          <mxGeometry x="114" y="210" width="70" height="70" as="geometry" />
        </mxCell>
        <mxCell id="fnQYyfFnShneouija3rD-6" value="" style="shape=image;html=1;verticalAlign=top;verticalLabelPosition=bottom;labelBackgroundColor=#ffffff;imageAspect=0;aspect=fixed;image=https://cdn2.iconfinder.com/data/icons/circle-icons-1/64/countdown-128.png" vertex="1" parent="1">
          <mxGeometry x="644" y="210" width="70" height="70" as="geometry" />
        </mxCell>
        <mxCell id="fnQYyfFnShneouija3rD-7" value="" style="shape=image;html=1;verticalAlign=top;verticalLabelPosition=bottom;labelBackgroundColor=#ffffff;imageAspect=0;aspect=fixed;image=https://cdn2.iconfinder.com/data/icons/circle-icons-1/64/countdown-128.png" vertex="1" parent="1">
          <mxGeometry x="114" y="645" width="70" height="70" as="geometry" />
        </mxCell>
        <mxCell id="fnQYyfFnShneouija3rD-8" value="" style="shape=image;html=1;verticalAlign=top;verticalLabelPosition=bottom;labelBackgroundColor=#ffffff;imageAspect=0;aspect=fixed;image=https://cdn2.iconfinder.com/data/icons/circle-icons-1/64/countdown-128.png" vertex="1" parent="1">
          <mxGeometry x="644" y="645" width="70" height="70" as="geometry" />
        </mxCell>
        <mxCell id="fnQYyfFnShneouija3rD-10" value="" style="endArrow=none;html=1;rounded=0;exitX=1;exitY=0.5;exitDx=0;exitDy=0;entryX=0;entryY=0.5;entryDx=0;entryDy=0;" edge="1" parent="1" source="fnQYyfFnShneouija3rD-5" target="fnQYyfFnShneouija3rD-6">
          <mxGeometry width="50" height="50" relative="1" as="geometry">
            <mxPoint x="390" y="510" as="sourcePoint" />
            <mxPoint x="440" y="460" as="targetPoint" />
          </mxGeometry>
        </mxCell>
        <mxCell id="fnQYyfFnShneouija3rD-11" value="" style="endArrow=none;html=1;rounded=0;entryX=0.5;entryY=1;entryDx=0;entryDy=0;exitX=0.5;exitY=0;exitDx=0;exitDy=0;" edge="1" parent="1" source="fnQYyfFnShneouija3rD-7" target="fnQYyfFnShneouija3rD-5">
          <mxGeometry width="50" height="50" relative="1" as="geometry">
            <mxPoint x="390" y="650" as="sourcePoint" />
            <mxPoint x="440" y="600" as="targetPoint" />
          </mxGeometry>
        </mxCell>
        <mxCell id="fnQYyfFnShneouija3rD-12" value="" style="endArrow=none;html=1;rounded=0;entryX=0.5;entryY=1;entryDx=0;entryDy=0;exitX=0.5;exitY=0;exitDx=0;exitDy=0;" edge="1" parent="1">
          <mxGeometry width="50" height="50" relative="1" as="geometry">
            <mxPoint x="678.5" y="645" as="sourcePoint" />
            <mxPoint x="678.5" y="280" as="targetPoint" />
          </mxGeometry>
        </mxCell>
        <mxCell id="fnQYyfFnShneouija3rD-17" value="" style="aspect=fixed;perimeter=ellipsePerimeter;html=1;align=center;shadow=0;dashed=0;fontColor=#4277BB;labelBackgroundColor=#ffffff;fontSize=12;spacingTop=3;image;image=img/lib/ibm/users/sensor.svg;rotation=90;" vertex="1" parent="1">
          <mxGeometry x="80" y="280" width="60" height="60" as="geometry" />
        </mxCell>
        <mxCell id="fnQYyfFnShneouija3rD-18" value="" style="aspect=fixed;perimeter=ellipsePerimeter;html=1;align=center;shadow=0;dashed=0;fontColor=#4277BB;labelBackgroundColor=#ffffff;fontSize=12;spacingTop=3;image;image=img/lib/ibm/users/sensor.svg;rotation=90;" vertex="1" parent="1">
          <mxGeometry x="80" y="595" width="60" height="60" as="geometry" />
        </mxCell>
        <mxCell id="fnQYyfFnShneouija3rD-19" value="" style="aspect=fixed;perimeter=ellipsePerimeter;html=1;align=center;shadow=0;dashed=0;fontColor=#4277BB;labelBackgroundColor=#ffffff;fontSize=12;spacingTop=3;image;image=img/lib/ibm/users/sensor.svg;rotation=0;" vertex="1" parent="1">
          <mxGeometry x="184" y="170" width="60" height="60" as="geometry" />
        </mxCell>
        <mxCell id="fnQYyfFnShneouija3rD-20" value="" style="aspect=fixed;perimeter=ellipsePerimeter;html=1;align=center;shadow=0;dashed=0;fontColor=#4277BB;labelBackgroundColor=#ffffff;fontSize=12;spacingTop=3;image;image=img/lib/ibm/users/sensor.svg;rotation=0;" vertex="1" parent="1">
          <mxGeometry x="590" y="170" width="60" height="60" as="geometry" />
        </mxCell>
        <mxCell id="fnQYyfFnShneouija3rD-21" value="" style="aspect=fixed;perimeter=ellipsePerimeter;html=1;align=center;shadow=0;dashed=0;fontColor=#4277BB;labelBackgroundColor=#ffffff;fontSize=12;spacingTop=3;image;image=img/lib/ibm/users/sensor.svg;rotation=90;" vertex="1" parent="1">
          <mxGeometry x="700" y="270" width="60" height="60" as="geometry" />
        </mxCell>
        <mxCell id="fnQYyfFnShneouija3rD-22" value="" style="aspect=fixed;perimeter=ellipsePerimeter;html=1;align=center;shadow=0;dashed=0;fontColor=#4277BB;labelBackgroundColor=#ffffff;fontSize=12;spacingTop=3;image;image=img/lib/ibm/users/sensor.svg;rotation=90;" vertex="1" parent="1">
          <mxGeometry x="700" y="595" width="60" height="60" as="geometry" />
        </mxCell>
        <mxCell id="fnQYyfFnShneouija3rD-24" value="" style="aspect=fixed;perimeter=ellipsePerimeter;html=1;align=center;shadow=0;dashed=0;fontColor=#4277BB;labelBackgroundColor=#ffffff;fontSize=12;spacingTop=3;image;image=img/lib/ibm/users/sensor.svg;rotation=0;" vertex="1" parent="1">
          <mxGeometry x="170" y="700" width="60" height="60" as="geometry" />
        </mxCell>
        <mxCell id="fnQYyfFnShneouija3rD-25" value="" style="aspect=fixed;perimeter=ellipsePerimeter;html=1;align=center;shadow=0;dashed=0;fontColor=#4277BB;labelBackgroundColor=#ffffff;fontSize=12;spacingTop=3;image;image=img/lib/ibm/users/sensor.svg;rotation=0;" vertex="1" parent="1">
          <mxGeometry x="600" y="700" width="60" height="60" as="geometry" />
        </mxCell>
      </root>
    </mxGraphModel>
  </diagram>
</mxfile>
